<svg xmlns="http://www.w3.org/2000/svg" viewBox="0 0 220 220">
  <rect x="8" y="8" width="204" height="204" rx="42" fill="#0D1B5A"/>
  <g transform="translate(40,26) scale(.72)">
    <rect x="55" y="0" width="72" height="118" rx="10" fill="#fff" stroke="#2563EB" stroke-width="6" transform="rotate(3 91 59)"/>
    <rect x="88" y="8" width="72" height="118" rx="10" fill="#fff" stroke="#2563EB" stroke-width="6" transform="rotate(10 124 67)"/>
    <rect x="20" y="10" width="86" height="128" rx="12" fill="#fff" stroke="#2563EB" stroke-width="6" transform="rotate(-3 63 74)"/>
    <circle cx="62" cy="80" r="30" fill="#2563EB"/>
    <path d="M10 90 Q20 78 40 78 H160 Q182 78 190 90 V205 Q190 220 178 229 L104 287 Q92 296 80 287 L20 245 Q8 237 8 220 Z" fill="#0B1D4A"/>
    <path d="M32 100 V208 L83 240" fill="none" stroke="#fff" stroke-width="4" stroke-linecap="round" stroke-dasharray="4 8"/>
    <text x="100" y="190" text-anchor="middle" font-size="96" fill="#fff" font-family="system-ui, -apple-system, BlinkMacSystemFont, 'Segoe UI', sans-serif" font-weight="700">$</text>
  </g>
</svg>
